<svg id="Layer_1" data-name="Layer 1" xmlns="http://www.w3.org/2000/svg" viewBox="0 0 100.66 16.26"><defs><style>.cls-1{fill:#d63031;}.cls-2{fill:#5b0707;}</style></defs><title>crambarry-long</title><path class="cls-1" d="M1154.64,225.21a1.59,1.59,0,0,1,.12-0.62,1.57,1.57,0,0,1,.33-0.51,1.65,1.65,0,0,1,.5-0.34,1.45,1.45,0,0,1,.6-0.13h5.9a1.45,1.45,0,0,1,.6.13,1.65,1.65,0,0,1,.5.34,1.56,1.56,0,0,1,.33.51,1.61,1.61,0,0,1,.12.62v1.44h-1.55v-1.44h-5.9v8h5.9v-1.43h1.55v1.43a1.62,1.62,0,0,1-.46,1.13,1.56,1.56,0,0,1-.5.34,1.49,1.49,0,0,1-.6.12h-5.9a1.48,1.48,0,0,1-.6-0.12,1.56,1.56,0,0,1-.5-0.34,1.63,1.63,0,0,1-.33-0.51,1.59,1.59,0,0,1-.12-0.62v-8Z" transform="translate(-1139.3 -221.88)"/><path class="cls-1" d="M1167.47,228v6.76H1166v-8.3h1.49V228a1.57,1.57,0,0,1,.46-1,1.48,1.48,0,0,1,.47-0.31,1.43,1.43,0,0,1,.57-0.11h1.58a1.41,1.41,0,0,1,.58.12,1.58,1.58,0,0,1,.47.33A1.53,1.53,0,0,1,1172,228v1.4h-1.49V228h-3.08Z" transform="translate(-1139.3 -221.88)"/><path class="cls-1" d="M1173.89,231.16a1.51,1.51,0,0,1,.12-0.6,1.61,1.61,0,0,1,.32-0.49,1.47,1.47,0,0,1,.47-0.33,1.41,1.41,0,0,1,.58-0.12h3.85V228h-4.87v-1.54h4.87a1.43,1.43,0,0,1,.58.12,1.51,1.51,0,0,1,.47.33,1.55,1.55,0,0,1,.44,1.09v6.76h-1.49v-1.4a1.47,1.47,0,0,1-.15.55,1.6,1.6,0,0,1-.33.45,1.52,1.52,0,0,1-.46.3,1.38,1.38,0,0,1-.54.11h-2.36a1.41,1.41,0,0,1-.58-0.12,1.5,1.5,0,0,1-.47-0.33,1.55,1.55,0,0,1-.44-1.09v-2.09Zm1.49,2.09h3.85v-2.09h-3.85v2.09Z" transform="translate(-1139.3 -221.88)"/><path class="cls-1" d="M1189.6,228v6.76h-1.49V228h-3.42v6.76h-1.49v-8.3h1.49V228a1.57,1.57,0,0,1,.46-1,1.48,1.48,0,0,1,.47-0.31,1.43,1.43,0,0,1,.57-0.11h1.92a1.42,1.42,0,0,1,.56.11,1.53,1.53,0,0,1,.47.31,1.57,1.57,0,0,1,.33.47,1.41,1.41,0,0,1,.13.57,1.62,1.62,0,0,1,.13-0.57,1.48,1.48,0,0,1,.78-0.78,1.43,1.43,0,0,1,.57-0.11H1193a1.44,1.44,0,0,1,.58.12,1.52,1.52,0,0,1,.47.33,1.54,1.54,0,0,1,.32.49,1.52,1.52,0,0,1,.12.6v6.76H1193V228h-3.41Z" transform="translate(-1139.3 -221.88)"/><path class="cls-2" d="M1204.22,229a2.21,2.21,0,0,1,.62.31,1.82,1.82,0,0,1,.48.52,2.56,2.56,0,0,1,.3.74,4.07,4.07,0,0,1,.11,1v0.56q0,2.71-2.64,2.71h-5.95V223.61h5.64q2.64,0,2.64,2.72v0.2a3.51,3.51,0,0,1-.29,1.54A1.85,1.85,0,0,1,1204.22,229Zm-5.55-3.78v3.18h4.17a1.07,1.07,0,0,0,.81-0.32,1.38,1.38,0,0,0,.25-0.9v-0.73a1.35,1.35,0,0,0-.27-0.94,1.16,1.16,0,0,0-.89-0.3h-4.07Zm0,4.74v3.3H1203a1.16,1.16,0,0,0,.89-0.3,1.34,1.34,0,0,0,.27-0.93v-0.87a1.32,1.32,0,0,0-.27-0.93,1.18,1.18,0,0,0-.89-0.29h-4.38Z" transform="translate(-1139.3 -221.88)"/><path class="cls-2" d="M1207.9,231.16a1.51,1.51,0,0,1,.12-0.6,1.61,1.61,0,0,1,.32-0.49,1.47,1.47,0,0,1,.47-0.33,1.41,1.41,0,0,1,.58-0.12h3.85V228h-4.87v-1.54h4.87a1.43,1.43,0,0,1,.58.12,1.51,1.51,0,0,1,.47.33,1.55,1.55,0,0,1,.44,1.09v6.76h-1.49v-1.4a1.47,1.47,0,0,1-.15.55,1.6,1.6,0,0,1-.33.45,1.52,1.52,0,0,1-.46.3,1.38,1.38,0,0,1-.54.11h-2.36a1.41,1.41,0,0,1-.58-0.12,1.5,1.5,0,0,1-.47-0.33,1.55,1.55,0,0,1-.44-1.09v-2.09Zm1.49,2.09h3.85v-2.09h-3.85v2.09Z" transform="translate(-1139.3 -221.88)"/><path class="cls-2" d="M1218.7,228v6.76h-1.49v-8.3h1.49V228a1.57,1.57,0,0,1,.46-1,1.48,1.48,0,0,1,.47-0.31,1.43,1.43,0,0,1,.57-0.11h1.58a1.41,1.41,0,0,1,.58.12,1.58,1.58,0,0,1,.47.33,1.53,1.53,0,0,1,.44,1.09v1.4h-1.49V228h-3.08Z" transform="translate(-1139.3 -221.88)"/><path class="cls-2" d="M1226.61,228v6.76h-1.49v-8.3h1.49V228a1.57,1.57,0,0,1,.46-1,1.48,1.48,0,0,1,.47-0.31,1.43,1.43,0,0,1,.57-0.11h1.58a1.41,1.41,0,0,1,.58.12,1.58,1.58,0,0,1,.47.33,1.53,1.53,0,0,1,.44,1.09v1.4h-1.49V228h-3.08Z" transform="translate(-1139.3 -221.88)"/><path class="cls-2" d="M1233.58,238.13l1.69-4.1-3.17-7.55h1.57l2.36,5.71,2.36-5.71H1240l-4.89,11.65h-1.49Z" transform="translate(-1139.3 -221.88)"/><path class="cls-1" d="M1141.24,223.72h0a1.94,1.94,0,0,0-1.94,1.94h0V233h0a1.94,1.94,0,0,0,1.94,1.94h3.48v-3h-2.52v-5.21h2.52v-3h-3.48Z" transform="translate(-1139.3 -221.88)"/><path class="cls-2" d="M1150.16,223.72h-3.49v-1.84l-1,.91-1-.91v13h5.43a1.94,1.94,0,0,0,1.94-1.94h0v-7.31h0a1.94,1.94,0,0,0-1.94-1.94h0Zm-0.49,8.2h-2.52v-5.21h2.52v5.21Z" transform="translate(-1139.3 -221.88)"/></svg>