<?xml version="1.0" encoding="utf-8"?>
<!-- Generator: Adobe Illustrator 16.0.0, SVG Export Plug-In . SVG Version: 6.00 Build 0)  -->
<!DOCTYPE svg PUBLIC "-//W3C//DTD SVG 1.1//EN" "http://www.w3.org/Graphics/SVG/1.1/DTD/svg11.dtd">
<svg version="1.1" id="Layer_1" xmlns="http://www.w3.org/2000/svg" xmlns:xlink="http://www.w3.org/1999/xlink" x="0px" y="0px"
	 width="612px" height="39px" viewBox="0 0 612 39" enable-background="new 0 0 612 39" xml:space="preserve">
<rect x="95.309" y="-0.398" fill="#FFFFFF" width="290.447" height="39.398"/>
<g>
	<polygon fill="#D52E2F" points="215.008,-0.398 206.659,-0.398 198.309,-0.398 190.983,-0.398 189.873,-0.398 181.784,-0.398 
		180.674,-0.398 -27.54,-0.398 -27.54,39 181.784,39 181.784,30.738 190.983,30.738 190.983,23.606 198.309,23.606 198.309,15.17 
		206.659,15.17 206.659,6.56 215.008,6.56 	"/>
	<rect x="198.309" y="26.737" fill="#D52E2F" width="4.175" height="4.175"/>
	<rect x="213.008" y="13.083" fill="#D52E2F" width="3.218" height="3.218"/>
	<rect x="218.574" y="8.821" fill="#D52E2F" width="4.522" height="4.522"/>
	<rect x="217.096" y="22.215" fill="#D52E2F" width="5.305" height="5.306"/>
</g>
</svg>
