<svg id="Layer_1" data-name="Layer 1" xmlns="http://www.w3.org/2000/svg" viewBox="0 0 277.93 179.36"><defs><style>.cls-1{fill:#fff;}.cls-2{fill:#d63031;}</style></defs><title>cramberryLargeFront</title><path class="cls-1" d="M1410.88,279.23v6.13h3.58v1h-4.57v-7.15h1Z" transform="translate(-1357.16 -107.02)"/><path class="cls-1" d="M1420.62,279.23h5.07v1h-4.08v2h3.48v1h-3.48v2h4.08v1h-5.07v-7.15Z" transform="translate(-1357.16 -107.02)"/><path class="cls-1" d="M1432.14,280.25a1,1,0,0,1,.08-0.4,1,1,0,0,1,.21-0.32,1,1,0,0,1,.32-0.22,0.92,0.92,0,0,1,.39-0.08h3.77a0.92,0.92,0,0,1,.39.08,1.06,1.06,0,0,1,.32.22,1,1,0,0,1,.21.32,1,1,0,0,1,.08.4v0.92h-1v-0.92h-3.77v5.11h3.77v-1.74H1435v-1h2.88v2.76a1,1,0,0,1-.29.72,1,1,0,0,1-.32.22,1,1,0,0,1-.39.08h-3.77a1,1,0,0,1-.39-0.08,1,1,0,0,1-.32-0.22,1,1,0,0,1-.29-0.72v-5.11Z" transform="translate(-1357.16 -107.02)"/><path class="cls-1" d="M1444.66,279.23h5.07v1h-4.08v2h3.48v1h-3.48v2h4.08v1h-5.07v-7.15Z" transform="translate(-1357.16 -107.02)"/><path class="cls-1" d="M1457.18,286.38h-1v-7.15h1l4.18,5.55v-5.55h1v7.15h-1l-4.18-5.55v5.55Z" transform="translate(-1357.16 -107.02)"/><path class="cls-1" d="M1469.11,286.38v-7.15h3.54a2.72,2.72,0,0,1,1,.18,2.16,2.16,0,0,1,.77.5,2.23,2.23,0,0,1,.49.79,2.94,2.94,0,0,1,.17,1v2.15a2.94,2.94,0,0,1-.17,1,2.22,2.22,0,0,1-.49.79,2.15,2.15,0,0,1-.77.5,2.72,2.72,0,0,1-1,.18h-3.54Zm3.54-1a1.42,1.42,0,0,0,1.07-.38,1.51,1.51,0,0,0,.37-1.1v-2.15a1.87,1.87,0,0,0-.1-0.62,1.25,1.25,0,0,0-.28-0.47,1.21,1.21,0,0,0-.45-0.29,1.72,1.72,0,0,0-.61-0.1h-2.54v5.11h2.54Z" transform="translate(-1357.16 -107.02)"/><path class="cls-1" d="M1484.72,279.23l2.68,7.15h-1l-0.62-1.65h-3.14l-0.62,1.65h-1l2.68-7.15h1Zm-1.69,4.48h2.38l-1.18-3.15Z" transform="translate(-1357.16 -107.02)"/><path class="cls-1" d="M1499.07,281.78a1.48,1.48,0,0,1-1.24,1.71l1.31,2.89H1498l-1.29-2.86h-2.18v2.86h-1v-7.15h3.81a1.52,1.52,0,0,1,1.69,1.74v0.81Zm-4.5.72h2.76a0.77,0.77,0,0,0,.57-0.18,0.82,0.82,0,0,0,.17-0.59V281a0.82,0.82,0,0,0-.17-0.59,0.77,0.77,0,0,0-.57-0.18h-2.76v2.25Z" transform="translate(-1357.16 -107.02)"/><path class="cls-1" d="M1506.15,279.23l2,3.34,2-3.34h1.16l-2.68,4.31v2.84h-1v-2.84l-2.68-4.31h1.15Z" transform="translate(-1357.16 -107.02)"/><path class="cls-1" d="M1526.36,283.32a0.92,0.92,0,0,1-.39-0.08,1,1,0,0,1-.32-0.22,1,1,0,0,1-.21-0.32,1,1,0,0,1-.08-0.4v-2a1,1,0,0,1,.08-0.4,1,1,0,0,1,.21-0.32,1,1,0,0,1,.32-0.22,0.92,0.92,0,0,1,.39-0.08h3.38a0.92,0.92,0,0,1,.39.08,1.06,1.06,0,0,1,.32.22,1,1,0,0,1,.21.32,1,1,0,0,1,.08.4v0.92h-1v-0.92h-3.38v2h3.38a1,1,0,0,1,.39.08,1,1,0,0,1,.32.22,1,1,0,0,1,.21.33,1,1,0,0,1,.08.4v2a1,1,0,0,1-.08.4,1,1,0,0,1-.21.33,1,1,0,0,1-.32.22,1,1,0,0,1-.39.08h-3.47a1,1,0,0,1-.39-0.08,1,1,0,0,1-.32-0.22,1,1,0,0,1-.29-0.72v-0.92h1v0.92h3.47v-2h-3.38Z" transform="translate(-1357.16 -107.02)"/><path class="cls-1" d="M1536.89,279.23h5.56v1h-2.29v6.13h-1v-6.13h-2.29v-1Z" transform="translate(-1357.16 -107.02)"/><path class="cls-1" d="M1548.62,279.23h1v6.13h4v-6.13h1v6.13a1,1,0,0,1-.08.4,1,1,0,0,1-.21.33,1,1,0,0,1-.32.22,1,1,0,0,1-.39.08h-4a1,1,0,0,1-.39-0.08,1,1,0,0,1-.32-0.22,1,1,0,0,1-.29-0.72v-6.13Z" transform="translate(-1357.16 -107.02)"/><path class="cls-1" d="M1561.33,286.38v-7.15h3.54a2.72,2.72,0,0,1,1,.18,2.16,2.16,0,0,1,.77.5,2.23,2.23,0,0,1,.49.79,2.94,2.94,0,0,1,.17,1v2.15a2.94,2.94,0,0,1-.17,1,2.22,2.22,0,0,1-.49.79,2.15,2.15,0,0,1-.77.5,2.72,2.72,0,0,1-1,.18h-3.54Zm3.54-1a1.42,1.42,0,0,0,1.07-.38,1.51,1.51,0,0,0,.37-1.1v-2.15a1.87,1.87,0,0,0-.1-0.62,1.25,1.25,0,0,0-.28-0.47,1.21,1.21,0,0,0-.45-0.29,1.72,1.72,0,0,0-.61-0.1h-2.54v5.11h2.54Z" transform="translate(-1357.16 -107.02)"/><path class="cls-1" d="M1574.33,279.23l2,3.34,2-3.34h1.16l-2.68,4.31v2.84h-1v-2.84l-2.68-4.31h1.15Z" transform="translate(-1357.16 -107.02)"/><path class="cls-1" d="M1457.74,122.85h0A16.69,16.69,0,0,0,1441,139.54h0v62.75h0A16.69,16.69,0,0,0,1457.74,219h29.92V193.31H1466V148.53h21.61V122.85h-29.92Z" transform="translate(-1357.16 -107.02)"/><path class="cls-2" d="M1534.31,122.85h-30V107l-8.33,7.81-8.37-7.81V219h46.65A16.69,16.69,0,0,0,1551,202.29h0V139.54h0a16.69,16.69,0,0,0-16.69-16.69h0Zm-4.17,70.45h-21.61V148.53h21.61v44.78Z" transform="translate(-1357.16 -107.02)"/><path class="cls-1" d="M1357.16,235.35a5.21,5.21,0,0,1,.4-2,5.08,5.08,0,0,1,1.09-1.65,5.38,5.38,0,0,1,1.62-1.12,4.71,4.71,0,0,1,2-.42h19.21a4.71,4.71,0,0,1,2,.42,5.38,5.38,0,0,1,1.62,1.12,5.12,5.12,0,0,1,1.09,1.65,5.22,5.22,0,0,1,.39,2V240h-5.06v-4.7h-19.21v26h19.21v-4.67h5.06v4.67A5.27,5.27,0,0,1,1385,265a5.07,5.07,0,0,1-1.62,1.12,4.83,4.83,0,0,1-2,.41h-19.21a4.83,4.83,0,0,1-2-.41,5.07,5.07,0,0,1-1.62-1.12,5.28,5.28,0,0,1-1.48-3.68v-26Z" transform="translate(-1357.16 -107.02)"/><path class="cls-1" d="M1398.93,244.51v22h-4.84v-27h4.84v4.77a5.09,5.09,0,0,1,.44-1.87,5,5,0,0,1,1-1.52,4.82,4.82,0,0,1,1.52-1,4.67,4.67,0,0,1,1.85-.37H1409a4.57,4.57,0,0,1,1.89.39,5.1,5.1,0,0,1,1.54,1.07,4.93,4.93,0,0,1,1,1.59,5,5,0,0,1,.38,2v4.57H1409v-4.57h-10Z" transform="translate(-1357.16 -107.02)"/><path class="cls-1" d="M1419.87,254.74a4.9,4.9,0,0,1,.38-1.94,5.25,5.25,0,0,1,1-1.59,4.81,4.81,0,0,1,1.54-1.08,4.59,4.59,0,0,1,1.88-.39h12.54v-5.23h-15.87v-5h15.87a4.65,4.65,0,0,1,1.9.39,4.9,4.9,0,0,1,1.54,1.07,5.07,5.07,0,0,1,1,1.59,5,5,0,0,1,.38,2v22h-4.86V262a4.78,4.78,0,0,1-.49,1.78,5.22,5.22,0,0,1-1.07,1.46,4.93,4.93,0,0,1-1.49,1,4.51,4.51,0,0,1-1.78.36h-7.7a4.58,4.58,0,0,1-1.88-.39,4.89,4.89,0,0,1-1.54-1.07,5,5,0,0,1-1-1.59,5,5,0,0,1-.38-2v-6.8Zm4.84,6.8h12.54v-6.8h-12.54v6.8Z" transform="translate(-1357.16 -107.02)"/><path class="cls-1" d="M1471,244.51v22h-4.86v-22H1455v22h-4.84v-27H1455v4.77a5.09,5.09,0,0,1,.44-1.87,5,5,0,0,1,1-1.52,4.82,4.82,0,0,1,1.52-1,4.67,4.67,0,0,1,1.85-.37h6.27a4.62,4.62,0,0,1,1.83.37,5,5,0,0,1,1.53,1,5.09,5.09,0,0,1,1.07,1.52,4.65,4.65,0,0,1,.43,1.87,5.26,5.26,0,0,1,.43-1.87,4.82,4.82,0,0,1,2.55-2.54,4.68,4.68,0,0,1,1.85-.37h6.27a4.66,4.66,0,0,1,1.9.39,4.9,4.9,0,0,1,1.54,1.07,5.07,5.07,0,0,1,1,1.59,5,5,0,0,1,.38,2v22h-4.86v-22H1471Z" transform="translate(-1357.16 -107.02)"/><path class="cls-2" d="M1518.67,247.56a7.15,7.15,0,0,1,2,1,5.93,5.93,0,0,1,1.56,1.69,8.33,8.33,0,0,1,1,2.42,13.36,13.36,0,0,1,.35,3.2v1.83q0,8.83-8.59,8.83h-19.38v-36.4H1514q8.59,0,8.59,8.86v0.66a11.42,11.42,0,0,1-1,5A6,6,0,0,1,1518.67,247.56Zm-18.09-12.31v10.36h13.6a3.46,3.46,0,0,0,2.63-1,4.49,4.49,0,0,0,.8-2.93v-2.39a4.39,4.39,0,0,0-.89-3,3.77,3.77,0,0,0-2.89-1h-13.26Zm0,15.43v10.76h14.27a3.77,3.77,0,0,0,2.89-1,4.35,4.35,0,0,0,.89-3v-2.82a4.3,4.3,0,0,0-.89-3,3.83,3.83,0,0,0-2.89-.94h-14.27Z" transform="translate(-1357.16 -107.02)"/><path class="cls-2" d="M1530.66,254.74a4.9,4.9,0,0,1,.38-1.94,5.25,5.25,0,0,1,1-1.59,4.81,4.81,0,0,1,1.54-1.08,4.59,4.59,0,0,1,1.88-.39H1548v-5.23h-15.87v-5H1548a4.65,4.65,0,0,1,1.9.39,4.9,4.9,0,0,1,1.54,1.07,5.07,5.07,0,0,1,1,1.59,5,5,0,0,1,.38,2v22H1548V262a4.78,4.78,0,0,1-.49,1.78,5.22,5.22,0,0,1-1.07,1.46,4.93,4.93,0,0,1-1.49,1,4.51,4.51,0,0,1-1.78.36h-7.7a4.58,4.58,0,0,1-1.88-.39,4.89,4.89,0,0,1-1.54-1.07,5,5,0,0,1-1-1.59,5,5,0,0,1-.38-2v-6.8Zm4.84,6.8H1548v-6.8H1535.5v6.8Z" transform="translate(-1357.16 -107.02)"/><path class="cls-2" d="M1565.84,244.51v22H1561v-27h4.84v4.77a5.09,5.09,0,0,1,.44-1.87,5,5,0,0,1,1-1.52,4.82,4.82,0,0,1,1.52-1,4.67,4.67,0,0,1,1.85-.37h5.16a4.57,4.57,0,0,1,1.89.39,5.1,5.1,0,0,1,1.54,1.07,4.93,4.93,0,0,1,1,1.59,5,5,0,0,1,.38,2v4.57h-4.86v-4.57h-10Z" transform="translate(-1357.16 -107.02)"/><path class="cls-2" d="M1591.62,244.51v22h-4.84v-27h4.84v4.77a5.09,5.09,0,0,1,.44-1.87,5,5,0,0,1,1-1.52,4.82,4.82,0,0,1,1.52-1,4.67,4.67,0,0,1,1.85-.37h5.16a4.57,4.57,0,0,1,1.89.39,5.1,5.1,0,0,1,1.54,1.07,4.93,4.93,0,0,1,1,1.59,5,5,0,0,1,.38,2v4.57h-4.86v-4.57h-10Z" transform="translate(-1357.16 -107.02)"/><path class="cls-2" d="M1614.33,277.46l5.5-13.35-10.32-24.59h5.11l7.68,18.6,7.68-18.6h5.11l-15.92,37.95h-4.84Z" transform="translate(-1357.16 -107.02)"/></svg>