<svg id="Layer_1" data-name="Layer 1" xmlns="http://www.w3.org/2000/svg" viewBox="0 0 2298.86 1246.55"><defs><style>.cls-1,.cls-3,.cls-30,.cls-32{fill:#fff;}.cls-1,.cls-2,.cls-30,.cls-32,.cls-33,.cls-5{stroke:#c6303f;stroke-miterlimit:10;}.cls-1,.cls-2{stroke-width:12.16px;}.cls-2,.cls-31{fill:#212121;}.cls-33,.cls-4{fill:#c6303f;}.cls-5{fill:none;stroke-width:12.69px;}.cls-6{fill:#4fc3f7;}.cls-7{fill:#ba68c8;}.cls-8{fill:#ffb74d;}.cls-9{fill:#81c784;}.cls-10{fill:#757575;}.cls-11{fill:#2b2b2b;}.cls-12{fill:#3f3f3f;}.cls-13{fill:#a77a3f;}.cls-14{fill:#e5d457;}.cls-15{fill:#eeb364;}.cls-16{fill:#bf2626;}.cls-17{fill:#f4cb95;}.cls-18{fill:#c02625;}.cls-19{fill:#ce7e49;}.cls-20{fill:#9d3f31;}.cls-21{opacity:0.23;}.cls-22{fill:#e3e3e3;}.cls-23{fill:#ac25fb;}.cls-24{fill:#f4c790;}.cls-25{fill:#0d47a1;}.cls-26{fill:#ffe369;}.cls-27{fill:#c18a48;}.cls-28{fill:#2c2c2c;}.cls-29{fill:#ffb422;}.cls-30{stroke-width:11.8px;}.cls-32{stroke-width:8px;}.cls-33{stroke-width:5px;}.cls-34{fill:#76ff03;}</style></defs><title>main</title><rect class="cls-1" x="287.68" y="6.08" width="1678.47" height="1182.8" rx="60.73" ry="60.73"/><rect class="cls-2" x="346.76" y="85.54" width="1563.79" height="1075.05" rx="33" ry="33"/><polygon class="cls-3" points="364.06 1235.56 195.33 1201.77 195.33 1157.53 2089.05 1157.53 2089.05 1201.77 1920.32 1235.56 364.06 1235.56"/><path class="cls-4" d="M3030.41,2530.79v32.64l-163,32.64h-1555l-163-32.64v-32.64h1881m12.75-12.75H1136.7v55.84l10.24,2.05,163,32.64,1.24,0.25H2868.69l1.24-.25,163-32.64,10.24-2.05V2518h0Z" transform="translate(-947.74 -1366.89)"/><path class="cls-5" d="M1919.15,2526.23s4.33,30,44.73,30h213.71" transform="translate(-947.74 -1366.89)"/><path class="cls-5" d="M2221,2526.23s-4.33,30-44.73,30H1962.58" transform="translate(-947.74 -1366.89)"/><rect class="cls-3" x="420.57" y="143.7" width="706.35" height="914.63" rx="25.51" ry="25.51"/><rect class="cls-6" x="457.1" y="192.44" width="193.7" height="41.39" rx="12" ry="12"/><rect class="cls-7" x="457.1" y="260.32" width="139.07" height="41.39" rx="12" ry="12"/><rect class="cls-8" x="452.97" y="382.84" width="190.81" height="41.39" rx="12" ry="12"/><rect class="cls-6" x="452.97" y="844.75" width="219.79" height="41.39" rx="12" ry="12"/><rect class="cls-9" x="452.97" y="641.11" width="179.63" height="41.39" rx="12" ry="12"/><rect class="cls-8" x="452.97" y="708.99" width="197.84" height="41.39" rx="12" ry="12"/><rect class="cls-7" x="452.97" y="776.87" width="143.21" height="41.39" rx="12" ry="12"/><rect class="cls-7" x="452.97" y="444.09" width="143.21" height="41.39" rx="12" ry="12"/><rect class="cls-10" x="676.89" y="192.44" width="298.41" height="41.39" rx="12" ry="12"/><rect class="cls-10" x="624.32" y="260.32" width="480.12" height="41.39" rx="12" ry="12"/><rect class="cls-10" x="457.1" y="321.58" width="368.99" height="41.39" rx="12" ry="12"/><rect class="cls-10" x="672.75" y="382.84" width="291.79" height="41.39" rx="12" ry="12"/><rect class="cls-10" x="650.81" y="641.11" width="399" height="41.39" rx="12" ry="12"/><rect class="cls-10" x="676.89" y="708.99" width="227.22" height="41.39" rx="12" ry="12"/><rect class="cls-10" x="616.56" y="776.87" width="387.43" height="41.39" rx="12" ry="12"/><rect class="cls-10" x="704.62" y="844.75" width="399.83" height="41.39" rx="12" ry="12"/><rect class="cls-10" x="452.97" y="912.63" width="651.48" height="41.39" rx="12" ry="12"/><rect class="cls-10" x="452.97" y="980.51" width="381.61" height="41.39" rx="12" ry="12"/><rect class="cls-10" x="624.32" y="444.09" width="480.12" height="41.39" rx="12" ry="12"/><rect class="cls-10" x="452.97" y="505.35" width="651.48" height="41.39" rx="12" ry="12"/><rect class="cls-10" x="452.97" y="573.23" width="260.76" height="41.39" rx="12" ry="12"/><rect class="cls-11" x="1283.23" y="318.75" width="7.06" height="34.43"/><rect class="cls-11" x="1249.09" y="318.75" width="7.06" height="34.43"/><rect class="cls-12" x="1283.39" y="349.73" width="14.71" height="5.63"/><rect class="cls-12" x="1249.09" y="349.73" width="14.39" height="5.63"/><polygon class="cls-13" points="1306.05 290.9 1220.31 290.9 1220.31 295.28 1220.31 346.6 1228.44 346.6 1228.44 307.93 1240.96 317.75 1240.96 367.88 1249.1 367.88 1249.1 320.94 1327.95 320.94 1327.95 367.88 1336.09 367.88 1336.09 316.56 1306.05 290.9"/><polygon class="cls-14" points="1294.05 163.22 1294.05 156.76 1243.36 156.76 1243.36 163.22 1236.16 163.22 1236.16 247.93 1301.46 247.93 1301.46 163.22 1294.05 163.22"/><polygon class="cls-15" points="1301.46 178.87 1285.71 178.87 1285.71 184.92 1271.89 184.92 1271.89 192.43 1264.32 192.43 1263.49 192.43 1249.93 192.43 1249.93 247.93 1246.17 247.93 1246.17 262.32 1276.01 262.32 1276.01 247.93 1264.32 247.93 1264.32 239.58 1285.71 239.58 1285.71 230.82 1292.9 230.82 1292.9 218.09 1301.46 218.09 1301.46 178.87"/><polygon class="cls-6" points="1286.86 247.93 1265.37 247.93 1265.37 256.69 1250.35 256.69 1250.35 247.93 1228.44 247.93 1228.44 262.32 1236.16 262.32 1236.16 290.9 1279.14 290.9 1279.14 262.32 1286.86 262.32 1286.86 247.93"/><polygon class="cls-15" points="1236.16 262.32 1228.44 262.32 1228.44 284.43 1228.44 292.15 1236.16 292.15 1258.27 292.15 1258.27 284.43 1236.16 284.43 1236.16 262.32"/><polygon class="cls-15" points="1286.86 284.43 1286.86 262.32 1279.14 262.32 1279.14 284.43 1279.14 292.15 1286.86 292.15 1308.97 292.15 1308.97 284.43 1286.86 284.43"/><rect class="cls-14" x="1261.61" y="191.18" width="10.27" height="9.39"/><circle class="cls-6" cx="1186.72" cy="169.9" r="27.54"/><rect class="cls-11" x="1283.23" y="587.5" width="7.06" height="34.43"/><rect class="cls-11" x="1249.09" y="587.5" width="7.06" height="34.43"/><rect class="cls-16" x="1283.39" y="618.48" width="14.71" height="5.63"/><rect class="cls-16" x="1249.09" y="618.48" width="14.39" height="5.63"/><polygon class="cls-17" points="1306.05 559.65 1220.31 559.65 1220.31 564.03 1220.31 615.35 1228.44 615.35 1228.44 576.67 1240.96 586.5 1240.96 636.63 1249.1 636.63 1249.1 589.69 1327.95 589.69 1327.95 636.63 1336.09 636.63 1336.09 585.31 1306.05 559.65"/><polygon class="cls-11" points="1294.05 431.97 1294.05 425.5 1243.36 425.5 1243.36 431.97 1236.16 431.97 1236.16 516.67 1301.46 516.67 1301.46 431.97 1294.05 431.97"/><polygon class="cls-15" points="1301.46 447.62 1285.71 447.62 1285.71 453.67 1271.89 453.67 1271.89 461.18 1264.32 461.18 1263.49 461.18 1249.93 461.18 1249.93 516.67 1246.17 516.67 1246.17 531.07 1276.01 531.07 1276.01 516.67 1264.32 516.67 1264.32 508.33 1285.71 508.33 1285.71 499.56 1292.9 499.56 1292.9 486.84 1301.46 486.84 1301.46 447.62"/><polygon class="cls-18" points="1286.86 516.67 1265.37 516.67 1265.37 525.43 1250.35 525.43 1250.35 516.67 1228.44 516.67 1228.44 531.07 1236.16 531.07 1236.16 559.65 1279.14 559.65 1279.14 531.07 1286.86 531.07 1286.86 516.67"/><polygon class="cls-15" points="1236.16 531.07 1228.44 531.07 1228.44 553.18 1228.44 560.9 1236.16 560.9 1258.27 560.9 1258.27 553.18 1236.16 553.18 1236.16 531.07"/><polygon class="cls-15" points="1286.86 553.18 1286.86 531.07 1279.14 531.07 1279.14 553.18 1279.14 560.9 1286.86 560.9 1308.97 560.9 1308.97 553.18 1286.86 553.18"/><rect class="cls-11" x="1261.61" y="459.93" width="10.27" height="9.39"/><circle class="cls-9" cx="1186.72" cy="438.65" r="27.54"/><rect class="cls-19" x="1530.81" y="587.5" width="7.06" height="34.43"/><rect class="cls-19" x="1496.67" y="587.5" width="7.06" height="34.43"/><rect class="cls-12" x="1530.97" y="618.48" width="14.71" height="5.63"/><rect class="cls-12" x="1496.67" y="618.48" width="14.39" height="5.63"/><polygon class="cls-20" points="1553.62 559.65 1467.88 559.65 1467.88 564.03 1467.88 615.35 1476.01 615.35 1476.01 576.67 1488.53 586.5 1488.53 636.63 1496.67 636.63 1496.67 589.69 1575.53 589.69 1575.53 636.63 1583.66 636.63 1583.66 585.31 1553.62 559.65"/><polygon class="cls-14" points="1541.62 431.97 1541.62 425.5 1490.93 425.5 1490.93 431.97 1483.73 431.97 1483.73 516.67 1549.03 516.67 1549.03 431.97 1541.62 431.97"/><polygon class="cls-15" points="1549.03 447.62 1533.28 447.62 1533.28 453.67 1519.46 453.67 1519.46 461.18 1511.9 461.18 1511.06 461.18 1497.5 461.18 1497.5 516.67 1493.75 516.67 1493.75 531.07 1523.58 531.07 1523.58 516.67 1511.9 516.67 1511.9 508.33 1533.28 508.33 1533.28 499.56 1540.48 499.56 1540.48 486.84 1549.03 486.84 1549.03 447.62"/><polygon class="cls-11" points="1534.43 516.67 1512.94 516.67 1512.94 525.43 1497.92 525.43 1497.92 516.67 1476.01 516.67 1476.01 531.07 1483.73 531.07 1483.73 559.65 1526.71 559.65 1526.71 531.07 1534.43 531.07 1534.43 516.67"/><polygon class="cls-15" points="1483.73 531.07 1476.01 531.07 1476.01 553.18 1476.01 560.9 1483.73 560.9 1505.85 560.9 1505.85 553.18 1483.73 553.18 1483.73 531.07"/><polygon class="cls-15" points="1534.43 553.18 1534.43 531.07 1526.71 531.07 1526.71 553.18 1526.71 560.9 1534.43 560.9 1556.54 560.9 1556.54 553.18 1534.43 553.18"/><rect class="cls-14" x="1509.18" y="459.93" width="10.27" height="9.39"/><circle class="cls-18" cx="1434.29" cy="438.65" r="27.54"/><g class="cls-21"><rect class="cls-11" x="1530.81" y="859.02" width="7.06" height="34.43"/><rect class="cls-11" x="1496.67" y="859.02" width="7.06" height="34.43"/><rect class="cls-22" x="1530.97" y="890" width="14.71" height="5.63"/><rect class="cls-22" x="1496.67" y="890" width="14.39" height="5.63"/><polygon class="cls-17" points="1553.62 831.16 1467.88 831.16 1467.88 835.55 1467.88 886.87 1476.01 886.87 1476.01 848.19 1488.53 858.01 1488.53 908.15 1496.67 908.15 1496.67 861.21 1575.53 861.21 1575.53 908.15 1583.66 908.15 1583.66 856.83 1553.62 831.16"/><polygon class="cls-14" points="1541.62 703.49 1541.62 697.02 1490.93 697.02 1490.93 703.49 1483.73 703.49 1483.73 788.19 1549.03 788.19 1549.03 703.49 1541.62 703.49"/><polygon class="cls-15" points="1549.03 719.14 1533.28 719.14 1533.28 725.19 1519.46 725.19 1519.46 732.7 1511.9 732.7 1511.06 732.7 1497.5 732.7 1497.5 788.19 1493.75 788.19 1493.75 802.58 1523.58 802.58 1523.58 788.19 1511.9 788.19 1511.9 779.85 1533.28 779.85 1533.28 771.08 1540.48 771.08 1540.48 758.36 1549.03 758.36 1549.03 719.14"/><polygon class="cls-23" points="1534.43 788.19 1512.94 788.19 1512.94 796.95 1497.92 796.95 1497.92 788.19 1476.01 788.19 1476.01 802.58 1483.73 802.58 1483.73 831.16 1526.71 831.16 1526.71 802.58 1534.43 802.58 1534.43 788.19"/><polygon class="cls-15" points="1483.73 802.58 1476.01 802.58 1476.01 824.7 1476.01 832.42 1483.73 832.42 1505.85 832.42 1505.85 824.7 1483.73 824.7 1483.73 802.58"/><polygon class="cls-15" points="1534.43 824.7 1534.43 802.58 1526.71 802.58 1526.71 824.7 1526.71 832.42 1534.43 832.42 1556.54 832.42 1556.54 824.7 1534.43 824.7"/><rect class="cls-14" x="1509.18" y="731.44" width="10.27" height="9.39"/><circle class="cls-6" cx="1434.29" cy="710.17" r="27.54"/></g><rect class="cls-11" x="1527.05" y="318.75" width="7.06" height="34.43"/><rect class="cls-11" x="1492.91" y="318.75" width="7.06" height="34.43"/><rect class="cls-22" x="1527.21" y="349.73" width="14.71" height="5.63"/><rect class="cls-22" x="1492.91" y="349.73" width="14.39" height="5.63"/><polygon class="cls-17" points="1551.12 291.8 1465.37 291.8 1465.37 296.18 1465.37 347.5 1473.51 347.5 1473.51 308.82 1486.03 318.65 1486.03 368.78 1494.16 368.78 1494.16 321.84 1573.02 321.84 1573.02 368.78 1581.16 368.78 1581.16 317.46 1551.12 291.8"/><circle class="cls-8" cx="1431.79" cy="170.8" r="27.54"/><polygon class="cls-24" points="1546.42 170.64 1481.12 170.64 1481.12 222.27 1495 222.27 1495 248.82 1492.91 255.36 1491.24 263.22 1521.08 263.22 1521.08 253.36 1510.51 248.82 1510.51 244.18 1537.24 244.18 1537.24 222.27 1546.42 222.27 1546.42 170.64"/><polygon class="cls-22" points="1531.92 248.82 1510.57 248.82 1510.57 257.58 1494.98 257.58 1494.98 248.82 1473.51 248.82 1473.51 263.22 1481.23 263.22 1481.23 291.8 1524.2 291.8 1524.2 263.22 1531.92 263.22 1531.92 248.82"/><polygon class="cls-24" points="1481.23 263.22 1473.51 263.22 1473.51 285.33 1473.51 293.05 1481.23 293.05 1503.34 293.05 1503.34 285.33 1481.23 285.33 1481.23 263.22"/><polygon class="cls-24" points="1531.92 285.33 1531.92 263.22 1524.2 263.22 1524.2 285.33 1524.2 293.05 1531.92 293.05 1554.04 293.05 1554.04 285.33 1531.92 285.33"/><polygon class="cls-11" points="1536.93 166.57 1536.93 158.75 1503.45 158.75 1495 158.75 1493.75 158.75 1486.86 158.75 1486.86 166.57 1480.09 166.57 1480.09 208.82 1488.32 208.82 1488.32 200.68 1495 200.68 1495 179.72 1503.45 179.72 1503.45 172.52 1536.93 172.52 1536.93 183.47 1547.59 183.47 1547.59 166.57 1536.93 166.57"/><g class="cls-21"><rect class="cls-11" x="1769.08" y="586.6" width="7.06" height="34.43"/><rect class="cls-11" x="1734.94" y="586.6" width="7.06" height="34.43"/><rect class="cls-25" x="1769.24" y="617.58" width="14.71" height="5.63"/><rect class="cls-25" x="1734.94" y="617.58" width="14.39" height="5.63"/><polygon class="cls-13" points="1793.15 559.65 1707.4 559.65 1707.4 564.03 1707.4 615.35 1715.54 615.35 1715.54 576.67 1728.06 586.5 1728.06 636.63 1736.19 636.63 1736.19 589.69 1815.05 589.69 1815.05 636.63 1823.19 636.63 1823.19 585.31 1793.15 559.65"/><circle class="cls-25" cx="1673.82" cy="438.65" r="27.54"/><polygon class="cls-15" points="1788.45 438.49 1723.15 438.49 1723.15 490.13 1737.03 490.13 1737.03 516.67 1734.94 523.21 1733.27 531.07 1763.11 531.07 1763.11 521.21 1752.54 516.67 1752.54 512.03 1779.27 512.03 1779.27 490.13 1788.45 490.13 1788.45 438.49"/><polygon class="cls-25" points="1773.95 516.67 1752.6 516.67 1752.6 525.43 1737.01 525.43 1737.01 516.67 1715.54 516.67 1715.54 531.07 1723.26 531.07 1723.26 559.65 1766.23 559.65 1766.23 531.07 1773.95 531.07 1773.95 516.67"/><polygon class="cls-15" points="1723.26 531.07 1715.54 531.07 1715.54 553.18 1715.54 560.9 1723.26 560.9 1745.37 560.9 1745.37 553.18 1723.26 553.18 1723.26 531.07"/><polygon class="cls-15" points="1773.95 553.18 1773.95 531.07 1766.23 531.07 1766.23 553.18 1766.23 560.9 1773.95 560.9 1796.07 560.9 1796.07 553.18 1773.95 553.18"/><polygon class="cls-11" points="1778.96 434.42 1778.96 426.6 1745.48 426.6 1737.03 426.6 1735.78 426.6 1728.89 426.6 1728.89 434.42 1722.12 434.42 1722.12 476.67 1730.35 476.67 1730.35 468.53 1737.03 468.53 1737.03 447.57 1745.48 447.57 1745.48 440.37 1778.96 440.37 1778.96 451.32 1789.62 451.32 1789.62 434.42 1778.96 434.42"/></g><rect class="cls-19" x="1765.43" y="318.75" width="7.06" height="34.43"/><rect class="cls-19" x="1731.29" y="318.75" width="7.06" height="34.43"/><rect class="cls-12" x="1765.59" y="349.73" width="14.71" height="5.63"/><rect class="cls-12" x="1731.29" y="349.73" width="14.39" height="5.63"/><polygon class="cls-17" points="1789.49 291.8 1703.75 291.8 1703.75 296.18 1703.75 347.5 1711.89 347.5 1711.89 308.82 1724.41 318.65 1724.41 368.78 1732.54 368.78 1732.54 321.84 1811.4 321.84 1811.4 368.78 1819.54 368.78 1819.54 317.46 1789.49 291.8"/><circle class="cls-7" cx="1670.16" cy="170.8" r="27.54"/><polygon class="cls-15" points="1784.8 170.64 1719.5 170.64 1719.5 222.27 1733.38 222.27 1733.38 248.82 1731.29 255.36 1729.62 263.22 1759.45 263.22 1759.45 253.36 1748.89 248.82 1748.89 244.18 1775.62 244.18 1775.62 222.27 1784.8 222.27 1784.8 170.64"/><polygon class="cls-23" points="1770.3 248.82 1748.95 248.82 1748.95 257.58 1733.36 257.58 1733.36 248.82 1711.89 248.82 1711.89 263.22 1719.61 263.22 1719.61 291.8 1762.58 291.8 1762.58 263.22 1770.3 263.22 1770.3 248.82"/><polygon class="cls-15" points="1719.61 263.22 1711.89 263.22 1711.89 285.33 1711.89 293.05 1719.61 293.05 1741.72 293.05 1741.72 285.33 1719.61 285.33 1719.61 263.22"/><polygon class="cls-15" points="1770.3 285.33 1770.3 263.22 1762.58 263.22 1762.58 285.33 1762.58 293.05 1770.3 293.05 1792.42 293.05 1792.42 285.33 1770.3 285.33"/><polygon class="cls-26" points="1775.31 166.57 1775.31 158.75 1741.83 158.75 1733.38 158.75 1732.13 158.75 1725.24 158.75 1725.24 166.57 1718.47 166.57 1718.47 208.82 1726.7 208.82 1726.7 200.68 1733.38 200.68 1733.38 179.72 1741.83 179.72 1741.83 172.52 1775.31 172.52 1775.31 183.47 1785.97 183.47 1785.97 166.57 1775.31 166.57"/><g class="cls-21"><rect class="cls-11" x="1283.44" y="858.98" width="7.06" height="34.43"/><rect class="cls-11" x="1249.3" y="858.98" width="7.06" height="34.43"/><rect class="cls-23" x="1283.6" y="889.96" width="14.71" height="5.63"/><rect class="cls-23" x="1249.3" y="889.96" width="14.39" height="5.63"/><polygon class="cls-20" points="1307.51 832.02 1221.77 832.02 1221.77 836.41 1221.77 887.73 1229.9 887.73 1229.9 849.05 1242.42 858.87 1242.42 909.01 1250.56 909.01 1250.56 862.07 1329.41 862.07 1329.41 909.01 1337.55 909.01 1337.55 857.68 1307.51 832.02"/><circle class="cls-25" cx="1188.18" cy="711.02" r="27.54"/><polygon class="cls-27" points="1302.81 710.87 1237.52 710.87 1237.52 762.5 1251.39 762.5 1251.39 789.05 1249.3 795.59 1247.63 803.44 1277.47 803.44 1277.47 793.59 1266.9 789.05 1266.9 784.41 1293.63 784.41 1293.63 762.5 1302.81 762.5 1302.81 710.87"/><polygon class="cls-28" points="1288.32 789.05 1266.96 789.05 1266.96 797.81 1251.37 797.81 1251.37 789.05 1229.9 789.05 1229.9 803.44 1237.62 803.44 1237.62 832.02 1280.6 832.02 1280.6 803.44 1288.32 803.44 1288.32 789.05"/><polygon class="cls-27" points="1237.62 803.44 1229.9 803.44 1229.9 825.56 1229.9 833.28 1237.62 833.28 1259.73 833.28 1259.73 825.56 1237.62 825.56 1237.62 803.44"/><polygon class="cls-27" points="1288.32 825.56 1288.32 803.44 1280.6 803.44 1280.6 825.56 1280.6 833.28 1288.32 833.28 1310.43 833.28 1310.43 825.56 1288.32 825.56"/><polygon class="cls-11" points="1293.32 706.8 1293.32 698.98 1259.84 698.98 1251.39 698.98 1250.14 698.98 1243.25 698.98 1243.25 706.8 1236.48 706.8 1236.48 749.05 1244.71 749.05 1244.71 740.91 1251.39 740.91 1251.39 719.94 1259.84 719.94 1259.84 712.75 1293.32 712.75 1293.32 723.7 1303.98 723.7 1303.98 706.8 1293.32 706.8"/><circle class="cls-29" cx="1188.18" cy="710.17" r="27.54"/></g><rect class="cls-30" x="1748.68" y="225.66" width="544.29" height="1014.99" rx="74.25" ry="74.25"/><rect class="cls-31" x="1777.35" y="320.08" width="488.32" height="812.88"/><rect class="cls-32" x="1955.21" y="1160.55" width="131.23" height="42.06" rx="17.36" ry="17.36"/><circle class="cls-4" cx="1947.41" cy="277.09" r="8.95"/><rect class="cls-4" x="1964.68" y="269.96" width="114.61" height="14.27" rx="6.99" ry="6.99"/><rect class="cls-3" x="4.18" y="231.36" width="431" height="847.21" rx="49.08" ry="49.08"/><path class="cls-4" d="M1333.84,1600.84a46.63,46.63,0,0,1,46.5,46.5v749.05a46.63,46.63,0,0,1-46.5,46.5H1001a46.63,46.63,0,0,1-46.5-46.5V1647.33a46.63,46.63,0,0,1,46.5-46.5h332.84m0-5.17H1001a51.72,51.72,0,0,0-51.66,51.66v749.05A51.72,51.72,0,0,0,1001,2448h332.84a51.72,51.72,0,0,0,51.66-51.66V1647.33a51.72,51.72,0,0,0-51.66-51.66h0Z" transform="translate(-947.74 -1366.89)"/><path class="cls-4" d="M1004.13,2447c-29.67,0-53.81-22.69-53.81-50.58V1647.33c0-27.89,24.14-50.58,53.81-50.58h326.58c29.67,0,53.81,22.69,53.81,50.58v749.05c0,27.89-24.14,50.58-53.81,50.58H1004.13Zm0-842c-25.06,0-45.44,19-45.44,42.42v749.05c0,23.39,20.39,42.41,45.44,42.41h326.58c25.06,0,45.44-19,45.44-42.41V1647.33c0-23.39-20.39-42.42-45.44-42.42H1004.13Z" transform="translate(-947.74 -1366.89)"/><path class="cls-4" d="M1330.71,1599.33c28.25,0,51.23,21.53,51.23,48v749.05c0,26.47-23,48-51.23,48H1004.13c-28.25,0-51.23-21.53-51.23-48V1647.33c0-26.47,23-48,51.23-48h326.58m-326.58,842h326.58c26.48,0,48-20.19,48-45V1647.33c0-24.81-21.54-45-48-45H1004.13c-26.48,0-48,20.19-48,45v749.05c0,24.81,21.54,45,48,45m326.58-847.21H1004.13c-31.1,0-56.39,23.85-56.39,53.16v749.05c0,29.31,25.3,53.16,56.39,53.16h326.58c31.1,0,56.39-23.85,56.39-53.16V1647.33c0-29.31-25.3-53.16-56.39-53.16h0Zm-326.58,842c-23.63,0-42.86-17.87-42.86-39.83V1647.33c0-22,19.23-39.83,42.86-39.83h326.58c23.63,0,42.86,17.87,42.86,39.83v749.05c0,22-19.23,39.83-42.86,39.83H1004.13Z" transform="translate(-947.74 -1366.89)"/><path class="cls-31" d="M40,332H395a12,12,0,0,1,12,12V950a12,12,0,0,1-12,12H45.46a12,12,0,0,1-12-12V338.48A6.5,6.5,0,0,1,40,332Z"/><circle class="cls-4" cx="219.68" cy="275.8" r="7.58"/><circle class="cls-4" cx="166.43" cy="306.05" r="4.58"/><rect class="cls-4" x="192.43" y="301.48" width="55.5" height="9.15"/><path class="cls-33" d="M1167.94,2420.44a37.07,37.07,0,1,1,37.07-37.07A37.12,37.12,0,0,1,1167.94,2420.44Zm0-70a32.93,32.93,0,1,0,32.93,32.93A33,33,0,0,0,1167.94,2350.44Z" transform="translate(-947.74 -1366.89)"/><rect class="cls-3" x="1797.26" y="339.73" width="449" height="239.38"/><rect class="cls-10" x="1797.49" y="579.29" width="449" height="171.49"/><circle class="cls-8" cx="1893.2" cy="404.44" r="37.56"/><rect class="cls-10" x="1941.26" y="369.06" width="286.99" height="41.39" rx="12" ry="12"/><rect class="cls-10" x="1941.26" y="437.09" width="286.99" height="41.39" rx="12" ry="12"/><rect class="cls-10" x="1941.26" y="503.04" width="190.83" height="41.39" rx="12" ry="12"/><polygon class="cls-10" points="1827.93 366.11 1844.7 395.16 1811.16 395.16 1827.93 366.11"/><polygon class="cls-10" points="1827.93 441.63 1811.16 412.58 1844.7 412.58 1827.93 441.63"/><circle class="cls-6" cx="1893.2" cy="642.11" r="37.56"/><rect class="cls-11" x="1941.26" y="606.73" width="286.99" height="41.39" rx="12" ry="12"/><rect class="cls-11" x="1941.26" y="674.76" width="238" height="41.39" rx="12" ry="12"/><polygon class="cls-34" points="1827.93 603.78 1844.7 632.83 1811.16 632.83 1827.93 603.78"/><polygon class="cls-11" points="1827.93 679.3 1811.16 650.25 1844.7 650.25 1827.93 679.3"/><rect class="cls-10" x="1797.49" y="750.95" width="449" height="233.16"/><circle class="cls-9" cx="1893.2" cy="813.78" r="37.56"/><rect class="cls-11" x="1941.26" y="778.39" width="286.99" height="41.39" rx="12" ry="12"/><rect class="cls-11" x="1941.26" y="846.43" width="286.99" height="41.39" rx="12" ry="12"/><rect class="cls-11" x="1941.26" y="912.63" width="91" height="41.39" rx="12" ry="12"/><polygon class="cls-11" points="1827.93 775.45 1844.7 804.49 1811.16 804.49 1827.93 775.45"/><polygon class="cls-11" points="1827.93 850.96 1811.16 821.92 1844.7 821.92 1827.93 850.96"/><rect class="cls-31" x="1785.97" y="578.26" width="467.29" height="1.71"/><rect class="cls-31" x="1785.97" y="744.94" width="467.29" height="1.71"/><rect class="cls-11" x="52.26" y="353.19" width="337" height="163.49"/><rect class="cls-10" x="227.26" y="532.05" width="159.85" height="47.18"/><rect class="cls-34" x="52.26" y="532.05" width="159.85" height="47.18"/><rect class="cls-10" x="227.26" y="595.03" width="159.85" height="47.18"/><rect class="cls-10" x="52.26" y="595.03" width="159.85" height="47.18"/><rect class="cls-10" x="70.47" y="376.78" width="298.41" height="41.39" rx="12" ry="12"/><rect class="cls-10" x="116.53" y="439.23" width="191.15" height="41.39" rx="12" ry="12"/><path class="cls-10" d="M1273.08,1824.91a5,5,0,0,1,1.79-2.8,9.14,9.14,0,0,1,1.65-1l6.76-3.34v-5.61h-12.57V1817h-5.25v-4.87a5.42,5.42,0,0,1,.41-2.09,5.28,5.28,0,0,1,1.13-1.71,5.54,5.54,0,0,1,1.68-1.16,4.87,4.87,0,0,1,2-.43h12.57a4.88,4.88,0,0,1,2,.43,5.55,5.55,0,0,1,1.68,1.16,5.28,5.28,0,0,1,1.13,1.71,5.42,5.42,0,0,1,.41,2.09v4.63a8.68,8.68,0,0,1-.2,2,5.21,5.21,0,0,1-.64,1.57,4.88,4.88,0,0,1-1.14,1.25,10.47,10.47,0,0,1-1.68,1.05l-6.78,3.32v4.55h-5.22v-3.58A8.18,8.18,0,0,1,1273.08,1824.91Zm-1.27,11.69h7.65v7.87h-7.65v-7.87Z" transform="translate(-947.74 -1366.89)"/></svg>